<svg xmlns="http://www.w3.org/2000/svg" viewBox="0 0 32 40" x="0px" y="0px"><g><path d="M14,9.57129A3.00243,3.00243,0,0,0,15,9.395v7.462A2.17458,2.17458,0,0,1,12.7998,19H3.2002A2.17458,2.17458,0,0,1,1,16.85693V3.14307A2.17458,2.17458,0,0,1,3.2002,1H6.3783a2.98917,2.98917,0,0,0-.1781,1V5.42871a4.03452,4.03452,0,0,0,4.1997,4.14258Zm-3.6001-2H14a.99971.99971,0,0,0,.68945-1.72412L9.88965,1.27588A1,1,0,0,0,8.2002,2V5.42871A2.03485,2.03485,0,0,0,10.3999,7.57129ZM31,15V28.85693A2.17458,2.17458,0,0,1,28.7998,31H19.2002A2.17458,2.17458,0,0,1,17,28.85693V15.14307A2.17458,2.17458,0,0,1,19.2002,13H29A2.002,2.002,0,0,1,31,15Zm-3,6a1,1,0,0,0-1-1H21a1,1,0,0,0,0,2h6A1,1,0,0,0,28,21Zm0-3a1,1,0,0,0-1-1H21a1,1,0,0,0,0,2h6A1,1,0,0,0,28,18ZM14,26H10a1.0013,1.0013,0,0,1-1-1V23.41406l.293.293A.99989.99989,0,0,0,10.707,22.293l-1.99969-1.9997L8.707,20.293a1.00352,1.00352,0,0,0-1.41406,0l-.00031.0003L5.293,22.293A.99989.99989,0,0,0,6.707,23.707l.293-.293V25a3.00328,3.00328,0,0,0,3,3h4a1,1,0,0,0,0-2ZM18,6h4a1.0013,1.0013,0,0,1,1,1V8.58594l-.293-.293A.99989.99989,0,0,0,21.293,9.707l1.99969,1.9997.00031.0003a1.00352,1.00352,0,0,0,1.41406,0l.00031-.0003L26.707,9.707A.99989.99989,0,0,0,25.293,8.293l-.293.293V7a3.00328,3.00328,0,0,0-3-3H18a1,1,0,0,0,0,2Z"/></g><text x="0" y="47" fill="#000000" font-size="5px" font-weight="bold" font-family="'Helvetica Neue', Helvetica, Arial-Unicode, Arial, Sans-serif">Created by Komardews</text><text x="0" y="52" fill="#000000" font-size="5px" font-weight="bold" font-family="'Helvetica Neue', Helvetica, Arial-Unicode, Arial, Sans-serif">from the Noun Project</text></svg>