<svg xmlns="http://www.w3.org/2000/svg" xmlns:xlink="http://www.w3.org/1999/xlink" version="1.1" x="0px" y="0px" viewBox="0 0 98 122.5" style="enable-background:new 0 0 98 98;" xml:space="preserve"><title>01</title><g><path d="M30.9,78.9c0.3,3,2.9,5.2,5.9,5.1H62c3.1,0.1,5.7-2.2,6-5.2L72.1,36H25.9L30.9,78.9z"/><path d="M79.6,23H61v-3.2c0.1-3.1-2.3-5.7-5.4-5.8c-0.1,0-0.2,0-0.3,0H42.7c-3.1-0.1-5.6,2.4-5.7,5.5   c0,0.1,0,0.2,0,0.3V23H18.4c-1.1,0-2,0.9-2,2s0.9,2,2,2h61.2c1.1,0,2-0.9,2-2S80.7,23,79.6,23z M57,23H41v-3.2   c-0.1-0.9,0.5-1.7,1.4-1.8c0.1,0,0.2,0,0.3,0h12.6c0.9-0.1,1.6,0.6,1.7,1.5c0,0.1,0,0.2,0,0.3C57,19.8,57,23,57,23z"/></g><text x="0" y="113" fill="#000000" font-size="5px" font-weight="bold" font-family="'Helvetica Neue', Helvetica, Arial-Unicode, Arial, Sans-serif">Created by Olivia</text><text x="0" y="118" fill="#000000" font-size="5px" font-weight="bold" font-family="'Helvetica Neue', Helvetica, Arial-Unicode, Arial, Sans-serif">from the Noun Project</text></svg>