<svg xmlns="http://www.w3.org/2000/svg" xmlns:xlink="http://www.w3.org/1999/xlink" version="1.1" x="0px" y="0px" viewBox="0 0 4000 5000" style="enable-background:new 0 0 4000 4000;" xml:space="preserve"><g><path d="M2112,1823v1012.5c0,33.4,27.1,60.5,60.5,60.5H3008c184.8,0,336-151.2,336-336V1440c0-184.8-151.2-336-336-336H992   c-184.8,0-336,151.2-336,336v1120c0,184.8,151.2,336,336,336h835.5c33.4,0,60.5-27.1,60.5-60.5V1820.8l-480.5,480.5   c-43.7,43.7-115.4,43.7-159,0c-43.7-43.7-43.7-114.2,0-157.9L1888,1505l32.5-32.5c43.7-43.7,114.2-43.7,157.9,0l33.6,33.6   l639.5,638.4c21.3,22.4,32.5,50.4,32.5,79.5s-11.2,57.1-32.5,79.5c-43.7,43.7-115.4,43.7-159,0L2112,1823z"/></g><text x="0" y="4015" fill="#000000" font-size="5px" font-weight="bold" font-family="'Helvetica Neue', Helvetica, Arial-Unicode, Arial, Sans-serif">Created by Nesterenko Ruslan</text><text x="0" y="4020" fill="#000000" font-size="5px" font-weight="bold" font-family="'Helvetica Neue', Helvetica, Arial-Unicode, Arial, Sans-serif">from the Noun Project</text></svg>